<?xml version="1.0" encoding="UTF-8" standalone="no"?><svg xmlns="http://www.w3.org/2000/svg" xmlns:xlink="http://www.w3.org/1999/xlink" clip-rule="evenodd" stroke-miterlimit="4.00" viewBox="0 0 1024 768"><desc>SVG generated by Keynote</desc><defs></defs><g transform="matrix(1.00, 0.00, -0.00, -1.00, 0.0, 768.0)"><path d="M 0.0 768.0 L 1024.0 768.0 L 1024.0 0.0 L 0.0 0.0 Z M 0.0 768.0 " fill="#212121"></path><path d="M 0.0 0.0 L 528.0 0.0 " fill="none" stroke="#A6AAA8" stroke-width="3.00" transform="matrix(1.00, 0.00, 0.00, -1.00, 464.0, 284.5)"></path><g><clipPath id="clip-7"><path d="M 0.0 768.0 L 432.0 768.0 L 432.0 0.0 L 0.0 0.0 Z M 0.0 768.0 "></path></clipPath><g clip-path="url(#clip-7)"><image xlink:href="../../878CF804-12D0-43F7-983A-25A8CCE5769D/assets/82F0E20C247E576B5858D7CF3AE33941.png" width="422.00" height="522.00" transform="matrix(1.47, 0.00, -0.00, -1.47, -94.0, 768.0)"></image></g></g><text xml:space="preserve" font-family="DINCondensed-Bold" font-weight="bold" font-size="130.9" fill="#34A4DA" transform="matrix(1.00, 0.00, -0.00, -1.00, 468.0, 165.0)">D</text><text xml:space="preserve" font-family="DINCondensed-Bold" font-weight="bold" font-size="130.9" fill="#34A4DA" transform="matrix(1.00, 0.00, -0.00, -1.00, 522.2, 165.0)">A</text><text xml:space="preserve" font-family="DINCondensed-Bold" font-weight="bold" font-size="130.9" fill="#34A4DA" transform="matrix(1.00, 0.00, -0.00, -1.00, 568.3, 165.0)">T</text><text xml:space="preserve" font-family="DINCondensed-Bold" font-weight="bold" font-size="130.9" fill="#34A4DA" transform="matrix(1.00, 0.00, -0.00, -1.00, 604.5, 165.0)">A</text><text xml:space="preserve" font-family="DINCondensed-Bold" font-weight="bold" font-size="130.9" fill="#34A4DA" transform="matrix(1.00, 0.00, -0.00, -1.00, 657.8, 165.0)"> </text><text xml:space="preserve" font-family="DINCondensed-Bold" font-weight="bold" font-size="130.9" fill="#34A4DA" transform="matrix(1.00, 0.00, -0.00, -1.00, 682.2, 165.0)">I</text><text xml:space="preserve" font-family="DINCondensed-Bold" font-weight="bold" font-size="130.9" fill="#34A4DA" transform="matrix(1.00, 0.00, -0.00, -1.00, 708.9, 165.0)">M</text><text xml:space="preserve" font-family="DINCondensed-Bold" font-weight="bold" font-size="130.9" fill="#34A4DA" transform="matrix(1.00, 0.00, -0.00, -1.00, 781.6, 165.0)">P</text><text xml:space="preserve" font-family="DINCondensed-Bold" font-weight="bold" font-size="130.9" fill="#34A4DA" transform="matrix(1.00, 0.00, -0.00, -1.00, 834.9, 165.0)">O</text><text xml:space="preserve" font-family="DINCondensed-Bold" font-weight="bold" font-size="130.9" fill="#34A4DA" transform="matrix(1.00, 0.00, -0.00, -1.00, 890.7, 165.0)">R</text><text xml:space="preserve" font-family="DINCondensed-Bold" font-weight="bold" font-size="130.9" fill="#34A4DA" transform="matrix(1.00, 0.00, -0.00, -1.00, 944.1, 165.0)">T</text><text xml:space="preserve" font-family="DINAlternate-Bold" font-weight="bold" font-size="54.0" fill="#A6AAA9" transform="matrix(1.00, 0.00, -0.00, -1.00, 468.0, 306.0)">T</text><text xml:space="preserve" font-family="DINAlternate-Bold" font-weight="bold" font-size="54.0" fill="#A6AAA9" transform="matrix(1.00, 0.00, -0.00, -1.00, 495.0, 306.0)">H</text><text xml:space="preserve" font-family="DINAlternate-Bold" font-weight="bold" font-size="54.0" fill="#A6AAA9" transform="matrix(1.00, 0.00, -0.00, -1.00, 530.0, 306.0)">E</text><text xml:space="preserve" font-family="DINAlternate-Bold" font-weight="bold" font-size="54.0" fill="#A6AAA9" transform="matrix(1.00, 0.00, -0.00, -1.00, 560.0, 306.0)"> </text><text xml:space="preserve" font-family="DINAlternate-Bold" font-weight="bold" font-size="54.0" fill="#A6AAA9" transform="matrix(1.00, 0.00, -0.00, -1.00, 573.0, 306.0)">P</text><text xml:space="preserve" font-family="DINAlternate-Bold" font-weight="bold" font-size="54.0" fill="#A6AAA9" transform="matrix(1.00, 0.00, -0.00, -1.00, 605.0, 306.0)">R</text><text xml:space="preserve" font-family="DINAlternate-Bold" font-weight="bold" font-size="54.0" fill="#A6AAA9" transform="matrix(1.00, 0.00, -0.00, -1.00, 637.9, 306.0)">O</text><text xml:space="preserve" font-family="DINAlternate-Bold" font-weight="bold" font-size="54.0" fill="#A6AAA9" transform="matrix(1.00, 0.00, -0.00, -1.00, 670.8, 306.0)">B</text><text xml:space="preserve" font-family="DINAlternate-Bold" font-weight="bold" font-size="54.0" fill="#A6AAA9" transform="matrix(1.00, 0.00, -0.00, -1.00, 703.7, 306.0)">L</text><text xml:space="preserve" font-family="DINAlternate-Bold" font-weight="bold" font-size="54.0" fill="#A6AAA9" transform="matrix(1.00, 0.00, -0.00, -1.00, 733.8, 306.0)">E</text><text xml:space="preserve" font-family="DINAlternate-Bold" font-weight="bold" font-size="54.0" fill="#A6AAA9" transform="matrix(1.00, 0.00, -0.00, -1.00, 763.8, 306.0)">M</text><text xml:space="preserve" font-family="DINAlternate-Bold" font-weight="bold" font-size="54.0" fill="#A6AAA9" transform="matrix(1.00, 0.00, -0.00, -1.00, 804.7, 306.0)">:</text></g></svg>