<?xml version="1.0" encoding="UTF-8" standalone="no"?><svg xmlns="http://www.w3.org/2000/svg" xmlns:xlink="http://www.w3.org/1999/xlink" clip-rule="evenodd" stroke-miterlimit="4.00" viewBox="0 0 1024 768"><desc>SVG generated by Keynote</desc><defs></defs><g transform="matrix(1.00, 0.00, -0.00, -1.00, 0.0, 768.0)"><path d="M 0.0 768.0 L 1024.0 768.0 L 1024.0 0.0 L 0.0 0.0 Z M 0.0 768.0 " fill="#212121"></path><text xml:space="preserve" font-family="DINCondensed-Bold" font-weight="bold" font-size="68.0" fill="#34A4DA" transform="matrix(1.00, 0.00, -0.00, -1.00, 41.0, 553.0)">T</text><text xml:space="preserve" font-family="DINCondensed-Bold" font-weight="bold" font-size="68.0" fill="#34A4DA" transform="matrix(1.00, 0.00, -0.00, -1.00, 63.6, 553.0)">H</text><text xml:space="preserve" font-family="DINCondensed-Bold" font-weight="bold" font-size="68.0" fill="#34A4DA" transform="matrix(1.00, 0.00, -0.00, -1.00, 92.5, 553.0)">E</text><text xml:space="preserve" font-family="DINCondensed-Bold" font-weight="bold" font-size="68.0" fill="#34A4DA" transform="matrix(1.00, 0.00, -0.00, -1.00, 117.7, 553.0)">R</text><text xml:space="preserve" font-family="DINCondensed-Bold" font-weight="bold" font-size="68.0" fill="#34A4DA" transform="matrix(1.00, 0.00, -0.00, -1.00, 146.7, 553.0)">E</text><text xml:space="preserve" font-family="DINCondensed-Bold" font-weight="bold" font-size="68.0" fill="#34A4DA" transform="matrix(1.00, 0.00, -0.00, -1.00, 171.8, 553.0)"> </text><text xml:space="preserve" font-family="DINCondensed-Bold" font-weight="bold" font-size="68.0" fill="#34A4DA" transform="matrix(1.00, 0.00, -0.00, -1.00, 184.5, 553.0)">I</text><text xml:space="preserve" font-family="DINCondensed-Bold" font-weight="bold" font-size="68.0" fill="#34A4DA" transform="matrix(1.00, 0.00, -0.00, -1.00, 198.4, 553.0)">S</text><text xml:space="preserve" font-family="DINCondensed-Bold" font-weight="bold" font-size="68.0" fill="#34A4DA" transform="matrix(1.00, 0.00, -0.00, -1.00, 226.0, 553.0)"> </text><text xml:space="preserve" font-family="DINCondensed-Bold" font-weight="bold" font-size="68.0" fill="#34A4DA" transform="matrix(1.00, 0.00, -0.00, -1.00, 238.6, 553.0)">N</text><text xml:space="preserve" font-family="DINCondensed-Bold" font-weight="bold" font-size="68.0" fill="#34A4DA" transform="matrix(1.00, 0.00, -0.00, -1.00, 268.8, 553.0)">O</text><text xml:space="preserve" font-family="DINCondensed-Bold" font-weight="bold" font-size="68.0" fill="#34A4DA" transform="matrix(1.00, 0.00, -0.00, -1.00, 297.8, 553.0)"> </text><text xml:space="preserve" font-family="DINCondensed-Bold" font-weight="bold" font-size="68.0" fill="#34A4DA" transform="matrix(1.00, 0.00, -0.00, -1.00, 310.4, 553.0)">S</text><text xml:space="preserve" font-family="DINCondensed-Bold" font-weight="bold" font-size="68.0" fill="#34A4DA" transform="matrix(1.00, 0.00, -0.00, -1.00, 338.0, 553.0)">U</text><text xml:space="preserve" font-family="DINCondensed-Bold" font-weight="bold" font-size="68.0" fill="#34A4DA" transform="matrix(1.00, 0.00, -0.00, -1.00, 367.0, 553.0)">C</text><text xml:space="preserve" font-family="DINCondensed-Bold" font-weight="bold" font-size="68.0" fill="#34A4DA" transform="matrix(1.00, 0.00, -0.00, -1.00, 394.7, 553.0)">H</text><text xml:space="preserve" font-family="DINCondensed-Bold" font-weight="bold" font-size="68.0" fill="#34A4DA" transform="matrix(1.00, 0.00, -0.00, -1.00, 423.6, 553.0)"> </text><text xml:space="preserve" font-family="DINCondensed-Bold" font-weight="bold" font-size="68.0" fill="#34A4DA" transform="matrix(1.00, 0.00, -0.00, -1.00, 436.3, 553.0)">T</text><text xml:space="preserve" font-family="DINCondensed-Bold" font-weight="bold" font-size="68.0" fill="#34A4DA" transform="matrix(1.00, 0.00, -0.00, -1.00, 458.9, 553.0)">H</text><text xml:space="preserve" font-family="DINCondensed-Bold" font-weight="bold" font-size="68.0" fill="#34A4DA" transform="matrix(1.00, 0.00, -0.00, -1.00, 487.8, 553.0)">I</text><text xml:space="preserve" font-family="DINCondensed-Bold" font-weight="bold" font-size="68.0" fill="#34A4DA" transform="matrix(1.00, 0.00, -0.00, -1.00, 501.7, 553.0)">N</text><text xml:space="preserve" font-family="DINCondensed-Bold" font-weight="bold" font-size="68.0" fill="#34A4DA" transform="matrix(1.00, 0.00, -0.00, -1.00, 531.9, 553.0)">G</text><text xml:space="preserve" font-family="DINCondensed-Bold" font-weight="bold" font-size="68.0" fill="#34A4DA" transform="matrix(1.00, 0.00, -0.00, -1.00, 560.9, 553.0)"> </text><text xml:space="preserve" font-family="DINCondensed-Bold" font-weight="bold" font-size="68.0" fill="#34A4DA" transform="matrix(1.00, 0.00, -0.00, -1.00, 573.5, 553.0)">A</text><text xml:space="preserve" font-family="DINCondensed-Bold" font-weight="bold" font-size="68.0" fill="#34A4DA" transform="matrix(1.00, 0.00, -0.00, -1.00, 601.2, 553.0)">S</text><text xml:space="preserve" font-family="DINCondensed-Bold" font-weight="bold" font-size="68.0" fill="#34A4DA" transform="matrix(1.00, 0.00, -0.00, -1.00, 628.8, 553.0)"> </text><text xml:space="preserve" font-family="DINCondensed-Bold" font-weight="bold" font-size="68.0" fill="#34A4DA" transform="matrix(1.00, 0.00, -0.00, -1.00, 641.4, 553.0)">A</text><text xml:space="preserve" font-family="DINCondensed-Bold" font-weight="bold" font-size="68.0" fill="#34A4DA" transform="matrix(1.00, 0.00, -0.00, -1.00, 669.1, 553.0)"> </text><text xml:space="preserve" font-family="DINCondensed-Bold" font-weight="bold" font-size="68.0" fill="#34A4DA" transform="matrix(1.00, 0.00, -0.00, -1.00, 681.8, 553.0)">N</text><text xml:space="preserve" font-family="DINCondensed-Bold" font-weight="bold" font-size="68.0" fill="#34A4DA" transform="matrix(1.00, 0.00, -0.00, -1.00, 712.0, 553.0)">E</text><text xml:space="preserve" font-family="DINCondensed-Bold" font-weight="bold" font-size="68.0" fill="#34A4DA" transform="matrix(1.00, 0.00, -0.00, -1.00, 737.1, 553.0)">W</text><text xml:space="preserve" font-family="DINCondensed-Bold" font-weight="bold" font-size="68.0" fill="#34A4DA" transform="matrix(1.00, 0.00, -0.00, -1.00, 777.4, 553.0)"> </text><text xml:space="preserve" font-family="DINCondensed-Bold" font-weight="bold" font-size="68.0" fill="#34A4DA" transform="matrix(1.00, 0.00, -0.00, -1.00, 790.1, 553.0)">I</text><text xml:space="preserve" font-family="DINCondensed-Bold" font-weight="bold" font-size="68.0" fill="#34A4DA" transform="matrix(1.00, 0.00, -0.00, -1.00, 804.0, 553.0)">D</text><text xml:space="preserve" font-family="DINCondensed-Bold" font-weight="bold" font-size="68.0" fill="#34A4DA" transform="matrix(1.00, 0.00, -0.00, -1.00, 832.9, 553.0)">E</text><text xml:space="preserve" font-family="DINCondensed-Bold" font-weight="bold" font-size="68.0" fill="#34A4DA" transform="matrix(1.00, 0.00, -0.00, -1.00, 858.1, 553.0)">A</text><text xml:space="preserve" font-family="DINCondensed-Bold" font-weight="bold" font-size="68.0" fill="#34A4DA" transform="matrix(1.00, 0.00, -0.00, -1.00, 885.8, 553.0)">.</text><text xml:space="preserve" font-family="DINCondensed-Bold" font-weight="bold" font-size="68.0" fill="#34A4DA" transform="matrix(1.00, 0.00, -0.00, -1.00, 898.4, 553.0)"> </text><text xml:space="preserve" font-family="DINCondensed-Bold" font-weight="bold" font-size="68.0" fill="#34A4DA" transform="matrix(1.00, 0.00, -0.00, -1.00, 911.1, 553.0)">W</text><text xml:space="preserve" font-family="DINCondensed-Bold" font-weight="bold" font-size="68.0" fill="#34A4DA" transform="matrix(1.00, 0.00, -0.00, -1.00, 951.4, 553.0)">E</text><text xml:space="preserve" font-family="DINCondensed-Bold" font-weight="bold" font-size="68.0" fill="#34A4DA" transform="matrix(1.00, 0.00, -0.00, -1.00, 976.5, 553.0)"> </text><text xml:space="preserve" font-family="DINCondensed-Bold" font-weight="bold" font-size="68.0" fill="#34A4DA" transform="matrix(1.00, 0.00, -0.00, -1.00, 67.0, 485.0)">S</text><text xml:space="preserve" font-family="DINCondensed-Bold" font-weight="bold" font-size="68.0" fill="#34A4DA" transform="matrix(1.00, 0.00, -0.00, -1.00, 94.6, 485.0)">I</text><text xml:space="preserve" font-family="DINCondensed-Bold" font-weight="bold" font-size="68.0" fill="#34A4DA" transform="matrix(1.00, 0.00, -0.00, -1.00, 108.5, 485.0)">M</text><text xml:space="preserve" font-family="DINCondensed-Bold" font-weight="bold" font-size="68.0" fill="#34A4DA" transform="matrix(1.00, 0.00, -0.00, -1.00, 146.3, 485.0)">P</text><text xml:space="preserve" font-family="DINCondensed-Bold" font-weight="bold" font-size="68.0" fill="#34A4DA" transform="matrix(1.00, 0.00, -0.00, -1.00, 174.0, 485.0)">L</text><text xml:space="preserve" font-family="DINCondensed-Bold" font-weight="bold" font-size="68.0" fill="#34A4DA" transform="matrix(1.00, 0.00, -0.00, -1.00, 192.9, 485.0)">Y</text><text xml:space="preserve" font-family="DINCondensed-Bold" font-weight="bold" font-size="68.0" fill="#34A4DA" transform="matrix(1.00, 0.00, -0.00, -1.00, 219.3, 485.0)"> </text><text xml:space="preserve" font-family="DINCondensed-Bold" font-weight="bold" font-size="68.0" fill="#34A4DA" transform="matrix(1.00, 0.00, -0.00, -1.00, 231.9, 485.0)">T</text><text xml:space="preserve" font-family="DINCondensed-Bold" font-weight="bold" font-size="68.0" fill="#34A4DA" transform="matrix(1.00, 0.00, -0.00, -1.00, 250.7, 485.0)">A</text><text xml:space="preserve" font-family="DINCondensed-Bold" font-weight="bold" font-size="68.0" fill="#34A4DA" transform="matrix(1.00, 0.00, -0.00, -1.00, 278.4, 485.0)">K</text><text xml:space="preserve" font-family="DINCondensed-Bold" font-weight="bold" font-size="68.0" fill="#34A4DA" transform="matrix(1.00, 0.00, -0.00, -1.00, 307.4, 485.0)">E</text><text xml:space="preserve" font-family="DINCondensed-Bold" font-weight="bold" font-size="68.0" fill="#34A4DA" transform="matrix(1.00, 0.00, -0.00, -1.00, 332.5, 485.0)"> </text><text xml:space="preserve" font-family="DINCondensed-Bold" font-weight="bold" font-size="68.0" fill="#34A4DA" transform="matrix(1.00, 0.00, -0.00, -1.00, 345.2, 485.0)">A</text><text xml:space="preserve" font-family="DINCondensed-Bold" font-weight="bold" font-size="68.0" fill="#34A4DA" transform="matrix(1.00, 0.00, -0.00, -1.00, 372.9, 485.0)"> </text><text xml:space="preserve" font-family="DINCondensed-Bold" font-weight="bold" font-size="68.0" fill="#34A4DA" transform="matrix(1.00, 0.00, -0.00, -1.00, 385.5, 485.0)">L</text><text xml:space="preserve" font-family="DINCondensed-Bold" font-weight="bold" font-size="68.0" fill="#34A4DA" transform="matrix(1.00, 0.00, -0.00, -1.00, 410.7, 485.0)">O</text><text xml:space="preserve" font-family="DINCondensed-Bold" font-weight="bold" font-size="68.0" fill="#34A4DA" transform="matrix(1.00, 0.00, -0.00, -1.00, 438.8, 485.0)">T</text><text xml:space="preserve" font-family="DINCondensed-Bold" font-weight="bold" font-size="68.0" fill="#34A4DA" transform="matrix(1.00, 0.00, -0.00, -1.00, 461.4, 485.0)"> </text><text xml:space="preserve" font-family="DINCondensed-Bold" font-weight="bold" font-size="68.0" fill="#34A4DA" transform="matrix(1.00, 0.00, -0.00, -1.00, 474.0, 485.0)">O</text><text xml:space="preserve" font-family="DINCondensed-Bold" font-weight="bold" font-size="68.0" fill="#34A4DA" transform="matrix(1.00, 0.00, -0.00, -1.00, 503.0, 485.0)">F</text><text xml:space="preserve" font-family="DINCondensed-Bold" font-weight="bold" font-size="68.0" fill="#34A4DA" transform="matrix(1.00, 0.00, -0.00, -1.00, 528.2, 485.0)"> </text><text xml:space="preserve" font-family="DINCondensed-Bold" font-weight="bold" font-size="68.0" fill="#34A4DA" transform="matrix(1.00, 0.00, -0.00, -1.00, 540.8, 485.0)">O</text><text xml:space="preserve" font-family="DINCondensed-Bold" font-weight="bold" font-size="68.0" fill="#34A4DA" transform="matrix(1.00, 0.00, -0.00, -1.00, 569.8, 485.0)">L</text><text xml:space="preserve" font-family="DINCondensed-Bold" font-weight="bold" font-size="68.0" fill="#34A4DA" transform="matrix(1.00, 0.00, -0.00, -1.00, 595.0, 485.0)">D</text><text xml:space="preserve" font-family="DINCondensed-Bold" font-weight="bold" font-size="68.0" fill="#34A4DA" transform="matrix(1.00, 0.00, -0.00, -1.00, 623.9, 485.0)"> </text><text xml:space="preserve" font-family="DINCondensed-Bold" font-weight="bold" font-size="68.0" fill="#34A4DA" transform="matrix(1.00, 0.00, -0.00, -1.00, 636.6, 485.0)">I</text><text xml:space="preserve" font-family="DINCondensed-Bold" font-weight="bold" font-size="68.0" fill="#34A4DA" transform="matrix(1.00, 0.00, -0.00, -1.00, 650.4, 485.0)">D</text><text xml:space="preserve" font-family="DINCondensed-Bold" font-weight="bold" font-size="68.0" fill="#34A4DA" transform="matrix(1.00, 0.00, -0.00, -1.00, 679.4, 485.0)">E</text><text xml:space="preserve" font-family="DINCondensed-Bold" font-weight="bold" font-size="68.0" fill="#34A4DA" transform="matrix(1.00, 0.00, -0.00, -1.00, 704.6, 485.0)">A</text><text xml:space="preserve" font-family="DINCondensed-Bold" font-weight="bold" font-size="68.0" fill="#34A4DA" transform="matrix(1.00, 0.00, -0.00, -1.00, 732.2, 485.0)">S</text><text xml:space="preserve" font-family="DINCondensed-Bold" font-weight="bold" font-size="68.0" fill="#34A4DA" transform="matrix(1.00, 0.00, -0.00, -1.00, 759.9, 485.0)"> </text><text xml:space="preserve" font-family="DINCondensed-Bold" font-weight="bold" font-size="68.0" fill="#34A4DA" transform="matrix(1.00, 0.00, -0.00, -1.00, 772.5, 485.0)">A</text><text xml:space="preserve" font-family="DINCondensed-Bold" font-weight="bold" font-size="68.0" fill="#34A4DA" transform="matrix(1.00, 0.00, -0.00, -1.00, 800.2, 485.0)">N</text><text xml:space="preserve" font-family="DINCondensed-Bold" font-weight="bold" font-size="68.0" fill="#34A4DA" transform="matrix(1.00, 0.00, -0.00, -1.00, 830.4, 485.0)">D</text><text xml:space="preserve" font-family="DINCondensed-Bold" font-weight="bold" font-size="68.0" fill="#34A4DA" transform="matrix(1.00, 0.00, -0.00, -1.00, 859.3, 485.0)"> </text><text xml:space="preserve" font-family="DINCondensed-Bold" font-weight="bold" font-size="68.0" fill="#34A4DA" transform="matrix(1.00, 0.00, -0.00, -1.00, 872.0, 485.0)">P</text><text xml:space="preserve" font-family="DINCondensed-Bold" font-weight="bold" font-size="68.0" fill="#34A4DA" transform="matrix(1.00, 0.00, -0.00, -1.00, 899.7, 485.0)">U</text><text xml:space="preserve" font-family="DINCondensed-Bold" font-weight="bold" font-size="68.0" fill="#34A4DA" transform="matrix(1.00, 0.00, -0.00, -1.00, 928.6, 485.0)">T</text><text xml:space="preserve" font-family="DINCondensed-Bold" font-weight="bold" font-size="68.0" fill="#34A4DA" transform="matrix(1.00, 0.00, -0.00, -1.00, 951.2, 485.0)"> </text><text xml:space="preserve" font-family="DINCondensed-Bold" font-weight="bold" font-size="68.0" fill="#34A4DA" transform="matrix(1.00, 0.00, -0.00, -1.00, 196.0, 416.0)">T</text><text xml:space="preserve" font-family="DINCondensed-Bold" font-weight="bold" font-size="68.0" fill="#34A4DA" transform="matrix(1.00, 0.00, -0.00, -1.00, 218.6, 416.0)">H</text><text xml:space="preserve" font-family="DINCondensed-Bold" font-weight="bold" font-size="68.0" fill="#34A4DA" transform="matrix(1.00, 0.00, -0.00, -1.00, 247.5, 416.0)">E</text><text xml:space="preserve" font-family="DINCondensed-Bold" font-weight="bold" font-size="68.0" fill="#34A4DA" transform="matrix(1.00, 0.00, -0.00, -1.00, 272.7, 416.0)">M</text><text xml:space="preserve" font-family="DINCondensed-Bold" font-weight="bold" font-size="68.0" fill="#34A4DA" transform="matrix(1.00, 0.00, -0.00, -1.00, 310.5, 416.0)"> </text><text xml:space="preserve" font-family="DINCondensed-Bold" font-weight="bold" font-size="68.0" fill="#34A4DA" transform="matrix(1.00, 0.00, -0.00, -1.00, 323.2, 416.0)">I</text><text xml:space="preserve" font-family="DINCondensed-Bold" font-weight="bold" font-size="68.0" fill="#34A4DA" transform="matrix(1.00, 0.00, -0.00, -1.00, 337.0, 416.0)">N</text><text xml:space="preserve" font-family="DINCondensed-Bold" font-weight="bold" font-size="68.0" fill="#34A4DA" transform="matrix(1.00, 0.00, -0.00, -1.00, 367.2, 416.0)">T</text><text xml:space="preserve" font-family="DINCondensed-Bold" font-weight="bold" font-size="68.0" fill="#34A4DA" transform="matrix(1.00, 0.00, -0.00, -1.00, 389.0, 416.0)">O</text><text xml:space="preserve" font-family="DINCondensed-Bold" font-weight="bold" font-size="68.0" fill="#34A4DA" transform="matrix(1.00, 0.00, -0.00, -1.00, 418.0, 416.0)"> </text><text xml:space="preserve" font-family="DINCondensed-Bold" font-weight="bold" font-size="68.0" fill="#34A4DA" transform="matrix(1.00, 0.00, -0.00, -1.00, 430.6, 416.0)">A</text><text xml:space="preserve" font-family="DINCondensed-Bold" font-weight="bold" font-size="68.0" fill="#34A4DA" transform="matrix(1.00, 0.00, -0.00, -1.00, 458.3, 416.0)"> </text><text xml:space="preserve" font-family="DINCondensed-Bold" font-weight="bold" font-size="68.0" fill="#34A4DA" transform="matrix(1.00, 0.00, -0.00, -1.00, 470.9, 416.0)">S</text><text xml:space="preserve" font-family="DINCondensed-Bold" font-weight="bold" font-size="68.0" fill="#34A4DA" transform="matrix(1.00, 0.00, -0.00, -1.00, 498.5, 416.0)">O</text><text xml:space="preserve" font-family="DINCondensed-Bold" font-weight="bold" font-size="68.0" fill="#34A4DA" transform="matrix(1.00, 0.00, -0.00, -1.00, 527.5, 416.0)">R</text><text xml:space="preserve" font-family="DINCondensed-Bold" font-weight="bold" font-size="68.0" fill="#34A4DA" transform="matrix(1.00, 0.00, -0.00, -1.00, 555.2, 416.0)">T</text><text xml:space="preserve" font-family="DINCondensed-Bold" font-weight="bold" font-size="68.0" fill="#34A4DA" transform="matrix(1.00, 0.00, -0.00, -1.00, 577.8, 416.0)"> </text><text xml:space="preserve" font-family="DINCondensed-Bold" font-weight="bold" font-size="68.0" fill="#34A4DA" transform="matrix(1.00, 0.00, -0.00, -1.00, 590.5, 416.0)">O</text><text xml:space="preserve" font-family="DINCondensed-Bold" font-weight="bold" font-size="68.0" fill="#34A4DA" transform="matrix(1.00, 0.00, -0.00, -1.00, 619.4, 416.0)">F</text><text xml:space="preserve" font-family="DINCondensed-Bold" font-weight="bold" font-size="68.0" fill="#34A4DA" transform="matrix(1.00, 0.00, -0.00, -1.00, 644.6, 416.0)"> </text><text xml:space="preserve" font-family="DINCondensed-Bold" font-weight="bold" font-size="68.0" fill="#34A4DA" transform="matrix(1.00, 0.00, -0.00, -1.00, 657.2, 416.0)">M</text><text xml:space="preserve" font-family="DINCondensed-Bold" font-weight="bold" font-size="68.0" fill="#34A4DA" transform="matrix(1.00, 0.00, -0.00, -1.00, 695.1, 416.0)">E</text><text xml:space="preserve" font-family="DINCondensed-Bold" font-weight="bold" font-size="68.0" fill="#34A4DA" transform="matrix(1.00, 0.00, -0.00, -1.00, 720.2, 416.0)">N</text><text xml:space="preserve" font-family="DINCondensed-Bold" font-weight="bold" font-size="68.0" fill="#34A4DA" transform="matrix(1.00, 0.00, -0.00, -1.00, 750.4, 416.0)">T</text><text xml:space="preserve" font-family="DINCondensed-Bold" font-weight="bold" font-size="68.0" fill="#34A4DA" transform="matrix(1.00, 0.00, -0.00, -1.00, 769.2, 416.0)">A</text><text xml:space="preserve" font-family="DINCondensed-Bold" font-weight="bold" font-size="68.0" fill="#34A4DA" transform="matrix(1.00, 0.00, -0.00, -1.00, 796.9, 416.0)">L</text><text xml:space="preserve" font-family="DINCondensed-Bold" font-weight="bold" font-size="68.0" fill="#34A4DA" transform="matrix(1.00, 0.00, -0.00, -1.00, 822.1, 416.0)"> </text><text xml:space="preserve" font-family="DINCondensed-Bold" font-weight="bold" font-size="68.0" fill="#34A4DA" transform="matrix(1.00, 0.00, -0.00, -1.00, 345.0, 348.0)">K</text><text xml:space="preserve" font-family="DINCondensed-Bold" font-weight="bold" font-size="68.0" fill="#34A4DA" transform="matrix(1.00, 0.00, -0.00, -1.00, 374.0, 348.0)">A</text><text xml:space="preserve" font-family="DINCondensed-Bold" font-weight="bold" font-size="68.0" fill="#34A4DA" transform="matrix(1.00, 0.00, -0.00, -1.00, 401.6, 348.0)">L</text><text xml:space="preserve" font-family="DINCondensed-Bold" font-weight="bold" font-size="68.0" fill="#34A4DA" transform="matrix(1.00, 0.00, -0.00, -1.00, 426.8, 348.0)">E</text><text xml:space="preserve" font-family="DINCondensed-Bold" font-weight="bold" font-size="68.0" fill="#34A4DA" transform="matrix(1.00, 0.00, -0.00, -1.00, 452.0, 348.0)">I</text><text xml:space="preserve" font-family="DINCondensed-Bold" font-weight="bold" font-size="68.0" fill="#34A4DA" transform="matrix(1.00, 0.00, -0.00, -1.00, 465.8, 348.0)">D</text><text xml:space="preserve" font-family="DINCondensed-Bold" font-weight="bold" font-size="68.0" fill="#34A4DA" transform="matrix(1.00, 0.00, -0.00, -1.00, 494.8, 348.0)">O</text><text xml:space="preserve" font-family="DINCondensed-Bold" font-weight="bold" font-size="68.0" fill="#34A4DA" transform="matrix(1.00, 0.00, -0.00, -1.00, 523.8, 348.0)">S</text><text xml:space="preserve" font-family="DINCondensed-Bold" font-weight="bold" font-size="68.0" fill="#34A4DA" transform="matrix(1.00, 0.00, -0.00, -1.00, 551.4, 348.0)">C</text><text xml:space="preserve" font-family="DINCondensed-Bold" font-weight="bold" font-size="68.0" fill="#34A4DA" transform="matrix(1.00, 0.00, -0.00, -1.00, 579.1, 348.0)">O</text><text xml:space="preserve" font-family="DINCondensed-Bold" font-weight="bold" font-size="68.0" fill="#34A4DA" transform="matrix(1.00, 0.00, -0.00, -1.00, 608.0, 348.0)">P</text><text xml:space="preserve" font-family="DINCondensed-Bold" font-weight="bold" font-size="68.0" fill="#34A4DA" transform="matrix(1.00, 0.00, -0.00, -1.00, 635.7, 348.0)">E</text><text xml:space="preserve" font-family="DINCondensed-Bold" font-weight="bold" font-size="68.0" fill="#34A4DA" transform="matrix(1.00, 0.00, -0.00, -1.00, 660.9, 348.0)">.</text><text xml:space="preserve" font-family="DINCondensed-Bold" font-weight="bold" font-size="68.0" fill="#34A4DA" transform="matrix(1.00, 0.00, -0.00, -1.00, 673.5, 348.0)"> </text><text xml:space="preserve" font-family="AvenirNext-Medium" font-size="34.0" fill="#34A4DA" transform="matrix(1.00, 0.00, -0.00, -1.00, 745.0, 167.0)">M</text><text xml:space="preserve" font-family="AvenirNext-Medium" font-size="34.0" fill="#34A4DA" transform="matrix(1.00, 0.00, -0.00, -1.00, 775.7, 167.0)">a</text><text xml:space="preserve" font-family="AvenirNext-Medium" font-size="34.0" fill="#34A4DA" transform="matrix(1.00, 0.00, -0.00, -1.00, 794.1, 167.0)">r</text><text xml:space="preserve" font-family="AvenirNext-Medium" font-size="34.0" fill="#34A4DA" transform="matrix(1.00, 0.00, -0.00, -1.00, 806.4, 167.0)">k</text><text xml:space="preserve" font-family="AvenirNext-Medium" font-size="34.0" fill="#34A4DA" transform="matrix(1.00, 0.00, -0.00, -1.00, 824.4, 167.0)"> </text><text xml:space="preserve" font-family="AvenirNext-Medium" font-size="34.0" fill="#34A4DA" transform="matrix(1.00, 0.00, -0.00, -1.00, 832.0, 167.0)">T</text><text xml:space="preserve" font-family="AvenirNext-Medium" font-size="34.0" fill="#34A4DA" transform="matrix(1.00, 0.00, -0.00, -1.00, 848.1, 167.0)">w</text><text xml:space="preserve" font-family="AvenirNext-Medium" font-size="34.0" fill="#34A4DA" transform="matrix(1.00, 0.00, -0.00, -1.00, 874.4, 167.0)">a</text><text xml:space="preserve" font-family="AvenirNext-Medium" font-size="34.0" fill="#34A4DA" transform="matrix(1.00, 0.00, -0.00, -1.00, 892.8, 167.0)">i</text><text xml:space="preserve" font-family="AvenirNext-Medium" font-size="34.0" fill="#34A4DA" transform="matrix(1.00, 0.00, -0.00, -1.00, 901.6, 167.0)">n</text><path d="M 15.0 0.0 C 6.7 -0.0 0.0 6.7 0.0 15.0 L 0.0 285.2 C -0.0 293.4 6.7 300.2 15.0 300.2 L 94.7 300.2 L 166.2 399.0 L 237.7 300.2 L 962.2 300.2 C 970.5 300.2 977.2 293.4 977.2 285.2 L 977.2 15.0 C 977.2 6.7 970.5 0.0 962.2 0.0 L 15.0 0.0 Z M 15.0 0.0 " fill="none" stroke="#5A5754" stroke-width="2.00" transform="matrix(-1.00, 0.00, 0.00, -1.00, 997.8, 622.0)"></path></g></svg>