<?xml version="1.0" encoding="UTF-8" standalone="no"?><svg xmlns="http://www.w3.org/2000/svg" xmlns:xlink="http://www.w3.org/1999/xlink" clip-rule="evenodd" stroke-miterlimit="4.00" viewBox="0 0 1024 768"><desc>SVG generated by Keynote</desc><defs></defs><g transform="matrix(1.00, 0.00, -0.00, -1.00, 0.0, 768.0)"><path d="M 0.0 768.0 L 1024.0 768.0 L 1024.0 0.0 L 0.0 0.0 Z M 0.0 768.0 " fill="#212121"></path><g><clipPath id="clip-50"><path d="M 0.0 747.0 L 1024.0 747.0 L 1024.0 -21.0 L 0.0 -21.0 Z M 0.0 746.7 "></path></clipPath><g clip-path="url(#clip-50)"><image xlink:href="../../A2D1A77A-2E2D-4EC9-9911-B0983D5A5759/assets/D2B2DD9ECF798BC208B864C06DC3AD63.png" width="960.00" height="266.00" transform="matrix(2.25, 0.00, -0.00, -2.25, -1136.0, 662.0)"></image></g></g><text xml:space="preserve" font-family="DINCondensed-Bold" font-weight="bold" font-size="60.0" fill="#34A4DA" transform="matrix(1.00, 0.00, -0.00, -1.00, 83.0, 701.0)">C</text><text xml:space="preserve" font-family="DINCondensed-Bold" font-weight="bold" font-size="60.0" fill="#34A4DA" transform="matrix(1.00, 0.00, -0.00, -1.00, 107.4, 701.0)">O</text><text xml:space="preserve" font-family="DINCondensed-Bold" font-weight="bold" font-size="60.0" fill="#34A4DA" transform="matrix(1.00, 0.00, -0.00, -1.00, 133.0, 701.0)">M</text><text xml:space="preserve" font-family="DINCondensed-Bold" font-weight="bold" font-size="60.0" fill="#34A4DA" transform="matrix(1.00, 0.00, -0.00, -1.00, 166.3, 701.0)">M</text><text xml:space="preserve" font-family="DINCondensed-Bold" font-weight="bold" font-size="60.0" fill="#34A4DA" transform="matrix(1.00, 0.00, -0.00, -1.00, 199.7, 701.0)">A</text><text xml:space="preserve" font-family="DINCondensed-Bold" font-weight="bold" font-size="60.0" fill="#34A4DA" transform="matrix(1.00, 0.00, -0.00, -1.00, 224.1, 701.0)">N</text><text xml:space="preserve" font-family="DINCondensed-Bold" font-weight="bold" font-size="60.0" fill="#34A4DA" transform="matrix(1.00, 0.00, -0.00, -1.00, 250.8, 701.0)">D</text><text xml:space="preserve" font-family="DINCondensed-Bold" font-weight="bold" font-size="60.0" fill="#34A4DA" transform="matrix(1.00, 0.00, -0.00, -1.00, 276.3, 701.0)">S</text><text xml:space="preserve" font-family="DINCondensed-Bold" font-weight="bold" font-size="60.0" fill="#34A4DA" transform="matrix(1.00, 0.00, -0.00, -1.00, 300.7, 701.0)"> </text><text xml:space="preserve" font-family="DINCondensed-Bold" font-weight="bold" font-size="60.0" fill="#34A4DA" transform="matrix(1.00, 0.00, -0.00, -1.00, 311.8, 701.0)">A</text><text xml:space="preserve" font-family="DINCondensed-Bold" font-weight="bold" font-size="60.0" fill="#34A4DA" transform="matrix(1.00, 0.00, -0.00, -1.00, 336.3, 701.0)">R</text><text xml:space="preserve" font-family="DINCondensed-Bold" font-weight="bold" font-size="60.0" fill="#34A4DA" transform="matrix(1.00, 0.00, -0.00, -1.00, 361.8, 701.0)">E</text><text xml:space="preserve" font-family="DINCondensed-Bold" font-weight="bold" font-size="60.0" fill="#34A4DA" transform="matrix(1.00, 0.00, -0.00, -1.00, 384.0, 701.0)"> </text><text xml:space="preserve" font-family="DINCondensed-Bold" font-weight="bold" font-size="60.0" fill="#34A4DA" transform="matrix(1.00, 0.00, -0.00, -1.00, 395.2, 701.0)">R</text><text xml:space="preserve" font-family="DINCondensed-Bold" font-weight="bold" font-size="60.0" fill="#34A4DA" transform="matrix(1.00, 0.00, -0.00, -1.00, 420.7, 701.0)">E</text><text xml:space="preserve" font-family="DINCondensed-Bold" font-weight="bold" font-size="60.0" fill="#34A4DA" transform="matrix(1.00, 0.00, -0.00, -1.00, 442.9, 701.0)">T</text><text xml:space="preserve" font-family="DINCondensed-Bold" font-weight="bold" font-size="60.0" fill="#34A4DA" transform="matrix(1.00, 0.00, -0.00, -1.00, 462.9, 701.0)">R</text><text xml:space="preserve" font-family="DINCondensed-Bold" font-weight="bold" font-size="60.0" fill="#34A4DA" transform="matrix(1.00, 0.00, -0.00, -1.00, 488.4, 701.0)">I</text><text xml:space="preserve" font-family="DINCondensed-Bold" font-weight="bold" font-size="60.0" fill="#34A4DA" transform="matrix(1.00, 0.00, -0.00, -1.00, 500.7, 701.0)">E</text><text xml:space="preserve" font-family="DINCondensed-Bold" font-weight="bold" font-size="60.0" fill="#34A4DA" transform="matrix(1.00, 0.00, -0.00, -1.00, 522.9, 701.0)">V</text><text xml:space="preserve" font-family="DINCondensed-Bold" font-weight="bold" font-size="60.0" fill="#34A4DA" transform="matrix(1.00, 0.00, -0.00, -1.00, 547.3, 701.0)">E</text><text xml:space="preserve" font-family="DINCondensed-Bold" font-weight="bold" font-size="60.0" fill="#34A4DA" transform="matrix(1.00, 0.00, -0.00, -1.00, 569.5, 701.0)">D</text><text xml:space="preserve" font-family="DINCondensed-Bold" font-weight="bold" font-size="60.0" fill="#34A4DA" transform="matrix(1.00, 0.00, -0.00, -1.00, 595.0, 701.0)"> </text><text xml:space="preserve" font-family="DINCondensed-Bold" font-weight="bold" font-size="60.0" fill="#34A4DA" transform="matrix(1.00, 0.00, -0.00, -1.00, 606.2, 701.0)">A</text><text xml:space="preserve" font-family="DINCondensed-Bold" font-weight="bold" font-size="60.0" fill="#34A4DA" transform="matrix(1.00, 0.00, -0.00, -1.00, 630.6, 701.0)">N</text><text xml:space="preserve" font-family="DINCondensed-Bold" font-weight="bold" font-size="60.0" fill="#34A4DA" transform="matrix(1.00, 0.00, -0.00, -1.00, 657.3, 701.0)">D</text><text xml:space="preserve" font-family="DINCondensed-Bold" font-weight="bold" font-size="60.0" fill="#34A4DA" transform="matrix(1.00, 0.00, -0.00, -1.00, 682.8, 701.0)"> </text><text xml:space="preserve" font-family="DINCondensed-Bold" font-weight="bold" font-size="60.0" fill="#34A4DA" transform="matrix(1.00, 0.00, -0.00, -1.00, 694.0, 701.0)">E</text><text xml:space="preserve" font-family="DINCondensed-Bold" font-weight="bold" font-size="60.0" fill="#34A4DA" transform="matrix(1.00, 0.00, -0.00, -1.00, 716.2, 701.0)">X</text><text xml:space="preserve" font-family="DINCondensed-Bold" font-weight="bold" font-size="60.0" fill="#34A4DA" transform="matrix(1.00, 0.00, -0.00, -1.00, 739.5, 701.0)">E</text><text xml:space="preserve" font-family="DINCondensed-Bold" font-weight="bold" font-size="60.0" fill="#34A4DA" transform="matrix(1.00, 0.00, -0.00, -1.00, 761.7, 701.0)">C</text><text xml:space="preserve" font-family="DINCondensed-Bold" font-weight="bold" font-size="60.0" fill="#34A4DA" transform="matrix(1.00, 0.00, -0.00, -1.00, 786.1, 701.0)">U</text><text xml:space="preserve" font-family="DINCondensed-Bold" font-weight="bold" font-size="60.0" fill="#34A4DA" transform="matrix(1.00, 0.00, -0.00, -1.00, 811.7, 701.0)">T</text><text xml:space="preserve" font-family="DINCondensed-Bold" font-weight="bold" font-size="60.0" fill="#34A4DA" transform="matrix(1.00, 0.00, -0.00, -1.00, 831.6, 701.0)">E</text><text xml:space="preserve" font-family="DINCondensed-Bold" font-weight="bold" font-size="60.0" fill="#34A4DA" transform="matrix(1.00, 0.00, -0.00, -1.00, 853.8, 701.0)">D</text><g opacity="0.54"><g><clipPath id="clip-51"><path d="M 262.0 562.0 L 718.0 562.0 L 718.0 665.0 L 262.0 665.0 Z M 262.0 562.0 "></path></clipPath><g clip-path="url(#clip-51)"><path d="M 652.1 597.3 L 652.1 563.3 L 716.1 613.3 L 652.1 663.3 L 652.1 629.3 L 263.3 629.3 L 263.3 597.3 Z M 652.1 597.3 " fill="#34A4DA"></path></g></g></g><text xml:space="preserve" font-family="DINCondensed-Bold" font-weight="bold" font-size="40.0" fill="#34A4DA" transform="matrix(1.00, 0.00, -0.00, -1.00, 62.0, 176.0)">M</text><text xml:space="preserve" font-family="DINCondensed-Bold" font-weight="bold" font-size="40.0" fill="#34A4DA" transform="matrix(1.00, 0.00, -0.00, -1.00, 84.2, 176.0)">E</text><text xml:space="preserve" font-family="DINCondensed-Bold" font-weight="bold" font-size="40.0" fill="#34A4DA" transform="matrix(1.00, 0.00, -0.00, -1.00, 99.0, 176.0)">S</text><text xml:space="preserve" font-family="DINCondensed-Bold" font-weight="bold" font-size="40.0" fill="#34A4DA" transform="matrix(1.00, 0.00, -0.00, -1.00, 115.3, 176.0)">S</text><text xml:space="preserve" font-family="DINCondensed-Bold" font-weight="bold" font-size="40.0" fill="#34A4DA" transform="matrix(1.00, 0.00, -0.00, -1.00, 131.5, 176.0)">A</text><text xml:space="preserve" font-family="DINCondensed-Bold" font-weight="bold" font-size="40.0" fill="#34A4DA" transform="matrix(1.00, 0.00, -0.00, -1.00, 147.8, 176.0)">G</text><text xml:space="preserve" font-family="DINCondensed-Bold" font-weight="bold" font-size="40.0" fill="#34A4DA" transform="matrix(1.00, 0.00, -0.00, -1.00, 164.8, 176.0)">E</text><text xml:space="preserve" font-family="DINCondensed-Bold" font-weight="bold" font-size="40.0" fill="#34A4DA" transform="matrix(1.00, 0.00, -0.00, -1.00, 179.6, 176.0)"> </text><text xml:space="preserve" font-family="DINCondensed-Bold" font-weight="bold" font-size="40.0" fill="#34A4DA" transform="matrix(1.00, 0.00, -0.00, -1.00, 187.1, 176.0)">S</text><text xml:space="preserve" font-family="DINCondensed-Bold" font-weight="bold" font-size="40.0" fill="#34A4DA" transform="matrix(1.00, 0.00, -0.00, -1.00, 203.3, 176.0)">U</text><text xml:space="preserve" font-family="DINCondensed-Bold" font-weight="bold" font-size="40.0" fill="#34A4DA" transform="matrix(1.00, 0.00, -0.00, -1.00, 220.4, 176.0)">B</text><text xml:space="preserve" font-family="DINCondensed-Bold" font-weight="bold" font-size="40.0" fill="#34A4DA" transform="matrix(1.00, 0.00, -0.00, -1.00, 237.4, 176.0)">S</text><text xml:space="preserve" font-family="DINCondensed-Bold" font-weight="bold" font-size="40.0" fill="#34A4DA" transform="matrix(1.00, 0.00, -0.00, -1.00, 253.6, 176.0)">C</text><text xml:space="preserve" font-family="DINCondensed-Bold" font-weight="bold" font-size="40.0" fill="#34A4DA" transform="matrix(1.00, 0.00, -0.00, -1.00, 269.9, 176.0)">R</text><text xml:space="preserve" font-family="DINCondensed-Bold" font-weight="bold" font-size="40.0" fill="#34A4DA" transform="matrix(1.00, 0.00, -0.00, -1.00, 287.0, 176.0)">I</text><text xml:space="preserve" font-family="DINCondensed-Bold" font-weight="bold" font-size="40.0" fill="#34A4DA" transform="matrix(1.00, 0.00, -0.00, -1.00, 295.1, 176.0)">P</text><text xml:space="preserve" font-family="DINCondensed-Bold" font-weight="bold" font-size="40.0" fill="#34A4DA" transform="matrix(1.00, 0.00, -0.00, -1.00, 311.4, 176.0)">T</text><text xml:space="preserve" font-family="DINCondensed-Bold" font-weight="bold" font-size="40.0" fill="#34A4DA" transform="matrix(1.00, 0.00, -0.00, -1.00, 324.7, 176.0)">I</text><text xml:space="preserve" font-family="DINCondensed-Bold" font-weight="bold" font-size="40.0" fill="#34A4DA" transform="matrix(1.00, 0.00, -0.00, -1.00, 332.8, 176.0)">O</text><text xml:space="preserve" font-family="DINCondensed-Bold" font-weight="bold" font-size="40.0" fill="#34A4DA" transform="matrix(1.00, 0.00, -0.00, -1.00, 349.9, 176.0)">N</text><text xml:space="preserve" font-family="DINCondensed-Bold" font-weight="bold" font-size="40.0" fill="#34A4DA" transform="matrix(1.00, 0.00, -0.00, -1.00, 367.6, 176.0)">S</text></g></svg>