<?xml version="1.0" encoding="UTF-8" standalone="no"?><svg xmlns="http://www.w3.org/2000/svg" xmlns:xlink="http://www.w3.org/1999/xlink" clip-rule="evenodd" stroke-miterlimit="4.00" viewBox="0 0 1024 768"><desc>SVG generated by Keynote</desc><defs></defs><g transform="matrix(1.00, 0.00, -0.00, -1.00, 0.0, 768.0)"><path d="M 0.0 768.0 L 1024.0 768.0 L 1024.0 0.0 L 0.0 0.0 Z M 0.0 768.0 " fill="#212121"></path><g><clipPath id="clip-48"><path d="M 0.0 747.0 L 1024.0 747.0 L 1024.0 -21.0 L 0.0 -21.0 Z M 0.0 746.7 "></path></clipPath><g clip-path="url(#clip-48)"><image xlink:href="../../A2D1A77A-2E2D-4EC9-9911-B0983D5A5759/assets/D2B2DD9ECF798BC208B864C06DC3AD63.png" width="960.00" height="266.00" transform="matrix(2.25, 0.00, -0.00, -2.25, -602.0, 662.0)"></image></g></g><text xml:space="preserve" font-family="DINCondensed-Bold" font-weight="bold" font-size="60.0" fill="#34A4DA" transform="matrix(1.00, 0.00, -0.00, -1.00, 159.0, 692.0)">T</text><text xml:space="preserve" font-family="DINCondensed-Bold" font-weight="bold" font-size="60.0" fill="#34A4DA" transform="matrix(1.00, 0.00, -0.00, -1.00, 178.9, 692.0)">R</text><text xml:space="preserve" font-family="DINCondensed-Bold" font-weight="bold" font-size="60.0" fill="#34A4DA" transform="matrix(1.00, 0.00, -0.00, -1.00, 204.5, 692.0)">A</text><text xml:space="preserve" font-family="DINCondensed-Bold" font-weight="bold" font-size="60.0" fill="#34A4DA" transform="matrix(1.00, 0.00, -0.00, -1.00, 228.9, 692.0)">N</text><text xml:space="preserve" font-family="DINCondensed-Bold" font-weight="bold" font-size="60.0" fill="#34A4DA" transform="matrix(1.00, 0.00, -0.00, -1.00, 255.5, 692.0)">S</text><text xml:space="preserve" font-family="DINCondensed-Bold" font-weight="bold" font-size="60.0" fill="#34A4DA" transform="matrix(1.00, 0.00, -0.00, -1.00, 279.9, 692.0)">A</text><text xml:space="preserve" font-family="DINCondensed-Bold" font-weight="bold" font-size="60.0" fill="#34A4DA" transform="matrix(1.00, 0.00, -0.00, -1.00, 304.3, 692.0)">C</text><text xml:space="preserve" font-family="DINCondensed-Bold" font-weight="bold" font-size="60.0" fill="#34A4DA" transform="matrix(1.00, 0.00, -0.00, -1.00, 328.7, 692.0)">T</text><text xml:space="preserve" font-family="DINCondensed-Bold" font-weight="bold" font-size="60.0" fill="#34A4DA" transform="matrix(1.00, 0.00, -0.00, -1.00, 348.7, 692.0)">I</text><text xml:space="preserve" font-family="DINCondensed-Bold" font-weight="bold" font-size="60.0" fill="#34A4DA" transform="matrix(1.00, 0.00, -0.00, -1.00, 360.9, 692.0)">O</text><text xml:space="preserve" font-family="DINCondensed-Bold" font-weight="bold" font-size="60.0" fill="#34A4DA" transform="matrix(1.00, 0.00, -0.00, -1.00, 386.5, 692.0)">N</text><text xml:space="preserve" font-family="DINCondensed-Bold" font-weight="bold" font-size="60.0" fill="#34A4DA" transform="matrix(1.00, 0.00, -0.00, -1.00, 413.1, 692.0)">S</text><text xml:space="preserve" font-family="DINCondensed-Bold" font-weight="bold" font-size="60.0" fill="#34A4DA" transform="matrix(1.00, 0.00, -0.00, -1.00, 437.5, 692.0)"> </text><text xml:space="preserve" font-family="DINCondensed-Bold" font-weight="bold" font-size="60.0" fill="#34A4DA" transform="matrix(1.00, 0.00, -0.00, -1.00, 448.6, 692.0)">A</text><text xml:space="preserve" font-family="DINCondensed-Bold" font-weight="bold" font-size="60.0" fill="#34A4DA" transform="matrix(1.00, 0.00, -0.00, -1.00, 473.0, 692.0)">R</text><text xml:space="preserve" font-family="DINCondensed-Bold" font-weight="bold" font-size="60.0" fill="#34A4DA" transform="matrix(1.00, 0.00, -0.00, -1.00, 498.6, 692.0)">E</text><text xml:space="preserve" font-family="DINCondensed-Bold" font-weight="bold" font-size="60.0" fill="#34A4DA" transform="matrix(1.00, 0.00, -0.00, -1.00, 520.8, 692.0)"> </text><text xml:space="preserve" font-family="DINCondensed-Bold" font-weight="bold" font-size="60.0" fill="#34A4DA" transform="matrix(1.00, 0.00, -0.00, -1.00, 532.0, 692.0)">F</text><text xml:space="preserve" font-family="DINCondensed-Bold" font-weight="bold" font-size="60.0" fill="#34A4DA" transform="matrix(1.00, 0.00, -0.00, -1.00, 554.2, 692.0)">E</text><text xml:space="preserve" font-family="DINCondensed-Bold" font-weight="bold" font-size="60.0" fill="#34A4DA" transform="matrix(1.00, 0.00, -0.00, -1.00, 576.4, 692.0)">D</text><text xml:space="preserve" font-family="DINCondensed-Bold" font-weight="bold" font-size="60.0" fill="#34A4DA" transform="matrix(1.00, 0.00, -0.00, -1.00, 601.9, 692.0)"> </text><text xml:space="preserve" font-family="DINCondensed-Bold" font-weight="bold" font-size="60.0" fill="#34A4DA" transform="matrix(1.00, 0.00, -0.00, -1.00, 613.1, 692.0)">I</text><text xml:space="preserve" font-family="DINCondensed-Bold" font-weight="bold" font-size="60.0" fill="#34A4DA" transform="matrix(1.00, 0.00, -0.00, -1.00, 625.3, 692.0)">N</text><text xml:space="preserve" font-family="DINCondensed-Bold" font-weight="bold" font-size="60.0" fill="#34A4DA" transform="matrix(1.00, 0.00, -0.00, -1.00, 652.0, 692.0)">T</text><text xml:space="preserve" font-family="DINCondensed-Bold" font-weight="bold" font-size="60.0" fill="#34A4DA" transform="matrix(1.00, 0.00, -0.00, -1.00, 671.2, 692.0)">O</text><text xml:space="preserve" font-family="DINCondensed-Bold" font-weight="bold" font-size="60.0" fill="#34A4DA" transform="matrix(1.00, 0.00, -0.00, -1.00, 696.7, 692.0)"> </text><text xml:space="preserve" font-family="DINCondensed-Bold" font-weight="bold" font-size="60.0" fill="#34A4DA" transform="matrix(1.00, 0.00, -0.00, -1.00, 707.9, 692.0)">A</text><text xml:space="preserve" font-family="DINCondensed-Bold" font-weight="bold" font-size="60.0" fill="#34A4DA" transform="matrix(1.00, 0.00, -0.00, -1.00, 732.3, 692.0)"> </text><text xml:space="preserve" font-family="DINCondensed-Bold" font-weight="bold" font-size="60.0" fill="#34A4DA" transform="matrix(1.00, 0.00, -0.00, -1.00, 743.5, 692.0)">Q</text><text xml:space="preserve" font-family="DINCondensed-Bold" font-weight="bold" font-size="60.0" fill="#34A4DA" transform="matrix(1.00, 0.00, -0.00, -1.00, 769.0, 692.0)">U</text><text xml:space="preserve" font-family="DINCondensed-Bold" font-weight="bold" font-size="60.0" fill="#34A4DA" transform="matrix(1.00, 0.00, -0.00, -1.00, 794.6, 692.0)">E</text><text xml:space="preserve" font-family="DINCondensed-Bold" font-weight="bold" font-size="60.0" fill="#34A4DA" transform="matrix(1.00, 0.00, -0.00, -1.00, 816.8, 692.0)">U</text><text xml:space="preserve" font-family="DINCondensed-Bold" font-weight="bold" font-size="60.0" fill="#34A4DA" transform="matrix(1.00, 0.00, -0.00, -1.00, 842.3, 692.0)">E</text><g opacity="0.54"><g><clipPath id="clip-49"><path d="M 262.0 562.0 L 718.0 562.0 L 718.0 665.0 L 262.0 665.0 Z M 262.0 562.0 "></path></clipPath><g clip-path="url(#clip-49)"><path d="M 652.1 597.3 L 652.1 563.3 L 716.1 613.3 L 652.1 663.3 L 652.1 629.3 L 263.3 629.3 L 263.3 597.3 Z M 652.1 597.3 " fill="#34A4DA"></path></g></g></g><text xml:space="preserve" font-family="DINCondensed-Bold" font-weight="bold" font-size="40.0" fill="#34A4DA" transform="matrix(1.00, 0.00, -0.00, -1.00, 27.0, 196.0)">R</text><text xml:space="preserve" font-family="DINCondensed-Bold" font-weight="bold" font-size="40.0" fill="#34A4DA" transform="matrix(1.00, 0.00, -0.00, -1.00, 44.0, 196.0)">E</text><text xml:space="preserve" font-family="DINCondensed-Bold" font-weight="bold" font-size="40.0" fill="#34A4DA" transform="matrix(1.00, 0.00, -0.00, -1.00, 58.8, 196.0)">T</text><text xml:space="preserve" font-family="DINCondensed-Bold" font-weight="bold" font-size="40.0" fill="#34A4DA" transform="matrix(1.00, 0.00, -0.00, -1.00, 72.1, 196.0)">H</text><text xml:space="preserve" font-family="DINCondensed-Bold" font-weight="bold" font-size="40.0" fill="#34A4DA" transform="matrix(1.00, 0.00, -0.00, -1.00, 89.2, 196.0)">I</text><text xml:space="preserve" font-family="DINCondensed-Bold" font-weight="bold" font-size="40.0" fill="#34A4DA" transform="matrix(1.00, 0.00, -0.00, -1.00, 97.3, 196.0)">N</text><text xml:space="preserve" font-family="DINCondensed-Bold" font-weight="bold" font-size="40.0" fill="#34A4DA" transform="matrix(1.00, 0.00, -0.00, -1.00, 115.1, 196.0)">K</text><text xml:space="preserve" font-family="DINCondensed-Bold" font-weight="bold" font-size="40.0" fill="#34A4DA" transform="matrix(1.00, 0.00, -0.00, -1.00, 132.1, 196.0)">D</text><text xml:space="preserve" font-family="DINCondensed-Bold" font-weight="bold" font-size="40.0" fill="#34A4DA" transform="matrix(1.00, 0.00, -0.00, -1.00, 149.2, 196.0)">B</text><text xml:space="preserve" font-family="DINCondensed-Bold" font-weight="bold" font-size="40.0" fill="#34A4DA" transform="matrix(1.00, 0.00, -0.00, -1.00, 166.2, 196.0)"> </text><text xml:space="preserve" font-family="DINCondensed-Bold" font-weight="bold" font-size="40.0" fill="#34A4DA" transform="matrix(1.00, 0.00, -0.00, -1.00, 173.6, 196.0)">C</text><text xml:space="preserve" font-family="DINCondensed-Bold" font-weight="bold" font-size="40.0" fill="#34A4DA" transform="matrix(1.00, 0.00, -0.00, -1.00, 189.9, 196.0)">H</text><text xml:space="preserve" font-family="DINCondensed-Bold" font-weight="bold" font-size="40.0" fill="#34A4DA" transform="matrix(1.00, 0.00, -0.00, -1.00, 207.0, 196.0)">A</text><text xml:space="preserve" font-family="DINCondensed-Bold" font-weight="bold" font-size="40.0" fill="#34A4DA" transform="matrix(1.00, 0.00, -0.00, -1.00, 223.2, 196.0)">N</text><text xml:space="preserve" font-family="DINCondensed-Bold" font-weight="bold" font-size="40.0" fill="#34A4DA" transform="matrix(1.00, 0.00, -0.00, -1.00, 241.0, 196.0)">G</text><text xml:space="preserve" font-family="DINCondensed-Bold" font-weight="bold" font-size="40.0" fill="#34A4DA" transform="matrix(1.00, 0.00, -0.00, -1.00, 258.0, 196.0)">E</text><text xml:space="preserve" font-family="DINCondensed-Bold" font-weight="bold" font-size="40.0" fill="#34A4DA" transform="matrix(1.00, 0.00, -0.00, -1.00, 272.8, 196.0)"> </text><text xml:space="preserve" font-family="DINCondensed-Bold" font-weight="bold" font-size="40.0" fill="#34A4DA" transform="matrix(1.00, 0.00, -0.00, -1.00, 280.3, 196.0)">F</text><text xml:space="preserve" font-family="DINCondensed-Bold" font-weight="bold" font-size="40.0" fill="#34A4DA" transform="matrix(1.00, 0.00, -0.00, -1.00, 295.1, 196.0)">E</text><text xml:space="preserve" font-family="DINCondensed-Bold" font-weight="bold" font-size="40.0" fill="#34A4DA" transform="matrix(1.00, 0.00, -0.00, -1.00, 309.9, 196.0)">E</text><text xml:space="preserve" font-family="DINCondensed-Bold" font-weight="bold" font-size="40.0" fill="#34A4DA" transform="matrix(1.00, 0.00, -0.00, -1.00, 324.7, 196.0)">D</text><text xml:space="preserve" font-family="DINCondensed-Bold" font-weight="bold" font-size="40.0" fill="#34A4DA" transform="matrix(1.00, 0.00, -0.00, -1.00, 341.7, 196.0)">S</text></g></svg>